<?xml version="1.0" encoding="utf-8"?>
<svg width="377.495" height="477.812" viewBox="0 0 377.495 477.812" fill="none" xmlns="http://www.w3.org/2000/svg">
  <defs>
    <linearGradient id="gradient_1" gradientUnits="userSpaceOnUse" x1="158" y1="130" x2="324" y2="388">
      <stop offset="0" stop-color="#BDBDBD" />
      <stop offset="1" stop-color="#605F5F" />
    </linearGradient>
    <linearGradient id="gradient_2" gradientUnits="userSpaceOnUse" x1="135" y1="139" x2="303" y2="398">
      <stop offset="0" stop-color="#E8E8E8" />
      <stop offset="1" stop-color="#929292" />
    </linearGradient>
  </defs>
  <g fill="url(#gradient_1)" fill-rule="evenodd">
    <path d="M97.7324 17.6994C118.995 8.18701 146.633 1.8329 173.205 0.346573C183.323 -0.21965 208.329 -0.0643768 215.816 0.610916C249.291 3.63124 281.57 16.1712 305.577 35.4812C318.916 46.2106 333.607 62.4671 341.747 75.5032C350.612 89.7021 357.282 108.903 359.641 127.008C360.747 135.507 360.718 159.332 359.595 164.093C359.136 166.041 357.163 171.241 355.21 175.649C347.308 193.488 347.448 198.86 356.238 215.151C365.42 232.168 375.395 253.012 376.635 257.775C377.68 261.791 377.738 263.027 376.995 265.507C375.208 271.47 370.022 275.058 361.705 276.083C359.52 276.352 357.183 276.727 356.513 276.916C354.215 277.563 353.482 281.988 353.687 293.98C353.866 304.467 353.762 305.544 352.362 307.81C351.465 309.261 349.508 310.894 347.578 311.801C345.782 312.646 344.141 313.785 343.931 314.332C343.721 314.88 344.221 316.647 345.043 318.258C347.643 323.355 346.822 327.039 341.163 335.692C335.795 343.898 335.22 346.661 336.778 356.775C339.745 376.048 335.291 383.753 319.005 387.516C311.444 389.264 292.003 389.168 280.816 387.328C264.221 384.6 250.734 385.664 242.771 390.331C235.773 394.432 233.379 397.961 221.586 421.568C209.627 445.504 204.192 457.263 199.866 468.563C197.968 473.518 196.1 477.678 195.714 477.808C195.328 477.936 193.302 475.181 191.211 471.685C177.086 448.065 157.887 423.538 138.116 403.855C114.189 380.034 92.4428 365.819 70.2958 359.523C65.28 358.097 65.2215 357.901 67.4792 350.135C68.6051 346.261 68.8427 343.042 68.8398 331.718C68.8362 318.964 68.6903 317.436 66.7729 310.062C62.2539 292.685 56.0204 279.87 43.5866 262.398C23.3406 233.948 9.84874 209.572 3.96407 190.811C-2.81543 169.195 -0.782364 139.512 9.1684 114.832C26.4158 72.0531 60.985 34.1386 97.7324 17.6994ZM210.644 90.0667C211.508 90.1951 212.392 90.2617 213.291 90.2617C223.17 90.2617 231.207 82.2242 231.207 72.345C231.207 62.4657 223.17 54.4283 213.291 54.4283C203.411 54.4283 195.374 62.4657 195.374 72.345C195.374 76.0153 196.483 79.4314 198.384 82.2756L187.381 99.1913L168.978 99.1913C166.222 92.8356 159.887 88.3785 152.53 88.3785C142.651 88.3785 134.613 96.416 134.613 106.295C134.613 116.174 142.651 124.212 152.53 124.212C159.91 124.212 166.262 119.727 169.004 113.339L188.188 113.503L201.06 131.07C198.619 134.132 197.159 138.009 197.159 142.22C197.159 152.099 205.196 160.137 215.075 160.137C224.955 160.137 232.992 152.099 232.992 142.22C232.992 132.341 224.955 124.303 215.075 124.303C214.64 124.303 214.208 124.319 213.781 124.35L200.264 105.72L210.644 90.0667Z" />
    <path d="M173.205 0.346573C146.633 1.8329 118.995 8.18701 97.7324 17.6994C60.985 34.1386 26.4158 72.0531 9.16841 114.832C-0.782349 139.512 -2.81541 169.195 3.96408 190.811C9.84875 209.572 23.3406 233.948 43.5866 262.398C56.0204 279.87 62.2539 292.685 66.7729 310.062C68.6904 317.436 68.8363 318.964 68.8399 331.718C68.8428 343.042 68.6051 346.261 67.4792 350.135C65.2215 357.901 65.28 358.097 70.2959 359.523C92.4428 365.819 114.189 380.034 138.116 403.855C157.887 423.538 177.086 448.065 191.211 471.685C191.606 472.345 191.998 472.978 192.377 473.571C192.448 473.681 192.517 473.789 192.586 473.895C194.126 476.269 195.415 477.908 195.714 477.808C195.967 477.723 196.852 475.917 197.965 473.292C197.998 473.214 198.032 473.134 198.065 473.055C198.628 471.718 199.246 470.183 199.866 468.563C204.192 457.263 209.627 445.504 221.586 421.568C233.379 397.961 235.773 394.432 242.771 390.331C250.734 385.664 264.221 384.6 280.816 387.328C292.003 389.168 311.444 389.264 319.005 387.516C335.291 383.753 339.745 376.048 336.778 356.775C335.22 346.661 335.795 343.898 341.163 335.692C346.822 327.039 347.643 323.355 345.043 318.258C344.221 316.647 343.721 314.88 343.931 314.332C344.141 313.785 345.782 312.646 347.578 311.801C349.508 310.894 351.465 309.261 352.362 307.81C353.762 305.544 353.866 304.467 353.687 293.98C353.482 281.988 354.215 277.563 356.513 276.916C357.183 276.727 359.52 276.352 361.705 276.083C370.022 275.058 375.208 271.47 376.995 265.507C377.738 263.027 377.68 261.791 376.635 257.775C375.395 253.012 365.42 232.168 356.238 215.151C347.448 198.86 347.308 193.488 355.21 175.649C357.163 171.241 359.136 166.041 359.595 164.093C360.718 159.332 360.747 135.507 359.641 127.008C357.282 108.903 350.612 89.7021 341.747 75.5032C333.607 62.4671 318.916 46.2106 305.577 35.4812C281.57 16.1712 249.291 3.63124 215.816 0.610916C208.329 -0.0643768 183.323 -0.21965 173.205 0.346573ZM194.765 467.891Q194.979 467.344 195.197 466.775Q201.054 451.477 217.113 419.334Q226.106 401.332 229.839 395.828Q234.019 389.665 240.243 386.018Q254.137 377.875 281.627 382.395Q289.628 383.71 301.295 383.768Q312.777 383.824 317.88 382.645Q327.978 380.311 330.783 375.459Q333.794 370.251 331.836 357.536Q330.53 349.057 331.478 344.5Q332.434 339.901 336.979 332.955Q340.725 327.227 341.32 324.555Q341.721 322.75 340.589 320.53Q338.083 315.618 339.263 312.539Q340.366 309.666 345.452 307.276Q347.372 306.374 348.109 305.181Q348.857 303.971 348.687 294.065Q348.526 284.617 349.229 280.376Q350.376 273.449 355.159 272.103Q356.744 271.657 361.093 271.121Q370.438 269.968 372.205 264.071Q372.688 262.461 371.796 259.035Q369.521 250.296 351.838 217.525Q344.678 204.256 344.466 196.11Q344.256 188.032 350.638 173.623Q353.999 166.037 354.729 162.945Q355.438 159.937 355.454 146.946Q355.47 133.704 354.682 127.654Q351.063 99.8649 337.506 78.1513Q324.247 56.9153 302.443 39.3773Q285.04 25.3793 262.436 16.5981Q239.769 7.79254 215.367 5.5907Q209.96 5.103 195.466 5.01309Q180.917 4.92282 173.484 5.33878Q132.479 7.63245 99.7742 22.2635Q73.1647 34.1675 49.8327 59.7571Q26.4048 85.4519 13.8057 116.701Q6.63942 134.476 5.28072 154.312Q3.93214 174.001 8.73494 189.315Q17.4202 217.005 47.6604 259.499Q65.1995 284.145 71.612 308.804Q73.1505 314.72 73.5014 318.397Q73.8371 321.914 73.8399 331.717Q73.8436 346.152 72.2805 351.53Q71.7066 353.505 71.4104 354.641Q71.5254 354.674 71.6632 354.713Q105.507 364.335 141.644 400.312Q172.543 431.074 194.765 467.891ZM213.199 95.2615L206.348 105.592L216.318 119.333Q225 119.748 231.274 126.021Q237.992 132.739 237.992 142.22Q237.992 151.7 231.274 158.419Q224.556 165.137 215.075 165.137Q205.595 165.137 198.877 158.419Q192.159 151.7 192.159 142.22Q192.159 136.223 194.96 131.204L185.637 118.481L172.02 118.365Q169.473 122.51 165.298 125.319Q159.512 129.212 152.53 129.212Q143.049 129.212 136.331 122.494Q129.613 115.776 129.613 106.295Q129.613 96.8148 136.331 90.0966Q143.05 83.3785 152.53 83.3785Q159.49 83.3785 165.263 87.2481Q169.443 90.0495 171.998 94.1913L184.669 94.1913L192.539 82.0923Q190.374 77.5497 190.374 72.345Q190.374 62.8644 197.092 56.1464Q203.81 49.4283 213.291 49.4283Q222.771 49.4283 229.489 56.1464Q236.207 62.8644 236.207 72.345Q236.207 81.8255 229.489 88.5436Q222.771 95.2617 213.291 95.2617Q213.245 95.2617 213.199 95.2615ZM198.385 82.2756L187.381 99.1913L168.978 99.1913C166.222 92.8356 159.887 88.3785 152.53 88.3785C142.651 88.3785 134.613 96.416 134.613 106.295C134.613 116.174 142.651 124.212 152.53 124.212C159.91 124.212 166.262 119.727 169.004 113.339L188.188 113.503L201.06 131.07C198.619 134.132 197.159 138.009 197.159 142.22C197.159 152.099 205.196 160.137 215.075 160.137C224.955 160.137 232.992 152.099 232.992 142.22C232.992 132.341 224.955 124.303 215.075 124.303C214.64 124.303 214.208 124.319 213.781 124.35L200.264 105.72L210.644 90.0667C211.508 90.1951 212.392 90.2617 213.291 90.2617C223.17 90.2617 231.207 82.2242 231.207 72.345C231.207 62.4657 223.17 54.4283 213.291 54.4283C203.412 54.4283 195.374 62.4657 195.374 72.345C195.374 76.0153 196.483 79.4314 198.385 82.2756Z" fill="url(#gradient_2)" fill-rule="evenodd" />
  </g>
</svg>